<svg xmlns="http://www.w3.org/2000/svg" viewBox="0 0 64 64">
  <defs><linearGradient id="g" x1="0" y1="0" x2="0" y2="64" gradientUnits="userSpaceOnUse">
    <stop offset="0" stop-color="#D97757"/><stop offset="1" stop-color="#C4633F"/></linearGradient></defs>
  <rect width="64" height="64" rx="15" fill="url(#g)"/>
  <!-- 拼图块：寓意可组合的 skill -->
  <path fill="#F7F3EC" d="M22 18h8a4 4 0 1 1 8 0h4a2 2 0 0 1 2 2v4a4 4 0 1 1 0 8v8a2 2 0 0 1-2 2h-8a4 4 0 1 0-8 0h-4a2 2 0 0 1-2-2v-8a4 4 0 1 1 0-8v-4a2 2 0 0 1 2-2z" opacity="0.95"/>
</svg>
